<svg id="wave" xmlns="http://www.w3.org/2000/svg" viewBox="0 0 746.84 499.87"><defs><style>.cls-1{fill:#673ab7;opacity:0.1;isolation:isolate;}</style></defs><title>bg2</title><path class="cls-1" d="M804,632.88c-47.88-1.66-93.48-17.11-137-34s-86.7-35.63-133.43-44.63c-30.06-5.76-64.43-6.58-88.65,9.53C421.58,579.29,414,606.06,410,630.9c-3,18.69-4.84,38.36,3.51,55.85,5.79,12.15,16.08,22.36,23.19,34,24.76,40.48,7.26,90.4-19.57,129.93-12.58,18.54-27.18,36.23-36.89,56S366,949,374.53,969.17s28.49,34.94,50.23,45.48c44.16,21.41,96.19,27.54,146.93,31,112.32,7.68,225.23,4.36,337.85,1,41.67-1.23,83.53-2.48,124.53-8.93,22.77-3.58,46.28-9.26,62.81-23,21-17.4,26.18-46.88,12.12-68.7-23.59-36.62-88.79-45.71-105.28-85-9.07-21.63.25-45.72,13.43-65.77,28.29-43,75.7-80.78,78.2-130,1.72-33.77-21.08-67.6-56.32-83.59-36.94-16.75-88.17-14.64-115.42,13.09C895.55,623.37,846.23,634.35,804,632.88Z" transform="translate(-370.04 -550.47)"/></svg>